<?xml version="1.0" encoding="UTF-8"?>
<svg id="Layer_2" xmlns="http://www.w3.org/2000/svg" version="1.1" viewBox="0 0 542.28 446.02">
  <!-- Generator: Adobe Illustrator 30.2.0, SVG Export Plug-In . SVG Version: 2.1.1 Build 45)  -->
  <defs>
    <style>
      .st0 {
        fill: #fff;
      }
    </style>
  </defs>
  <path class="st0" d="M488.54,374.34c-26.85,18.92-59.06,30.94-94.23,33.26-44.13,2.92-85.67-9.9-119.14-33.64l48.44-57.79c18.96,11.92,41.7,18.19,65.75,16.6,18.11-1.2,34.91-6.72,49.46-15.49,10.99-6.62,20.67-15.08,28.67-24.94,16.9-20.79,26.28-47.77,24.38-76.6-1.7-25.76-12.15-48.87-28.27-66.62l48.45-57.8,24.47-29.21c-9.14-8.78-19.03-16.77-29.55-23.89C467.34,11.41,418.83-2.91,367.4.49c-43.93,2.91-84.05,18.35-117.1,42.61-10.26,7.52-19.82,15.89-28.61,25l25.08,28.79c8.63-9.27,18.21-17.66,28.6-25.02,26.9-19.04,59.23-31.13,94.54-33.46,41.26-2.73,80.25,8.29,112.5,29.13l-48.81,58.25c-17.44-9.27-37.59-13.94-58.74-12.54-18.24,1.21-35.15,6.79-49.76,15.68-10.96,6.65-20.63,15.14-28.59,25.03-16.76,20.75-26.04,47.61-24.15,76.31,1.51,22.86,9.91,43.63,23.04,60.42l-48.8,58.24-24.57,29.33c8.83,9.11,18.44,17.45,28.69,24.93,40.77,29.76,91.82,45.93,146.12,42.34,43.8-2.9,83.83-18.26,116.82-42.39,10.26-7.51,19.84-15.86,28.64-24.97l-25.08-28.78c-8.65,9.25-18.25,17.62-28.66,24.96h-.02ZM323.4,184.85c6.99-10.72,16.85-19.45,28.57-25.05,7.78-3.71,16.38-6.03,25.51-6.64,10.37-.69,20.36.92,29.47,4.39,12.13,4.61,22.71,12.51,30.57,22.68,8.22,10.63,13.47,23.73,14.42,38.15,1.05,15.84-3.26,30.78-11.36,43.08-7.04,10.69-16.94,19.37-28.7,24.91-7.69,3.62-16.18,5.88-25.17,6.48-13.32.88-26.02-2.03-37.05-7.79-11.41-5.99-21.03-15.03-27.68-26.14-5.52-9.22-8.99-19.84-9.75-31.29-1.04-15.71,3.18-30.54,11.15-42.78h.02Z"/>
  <g>
    <path class="st0" d="M226.1,223.01c0,123.16-99.84,223-223,223v-38c102.17,0,185-82.83,185-185S105.27,38.01,3.1,38.01V0c123.16,0,223,99.84,223,223h0Z"/>
    <path class="st0" d="M3.1,72.06h-.1v301.9h.1c83.37,0,150.95-67.58,150.95-150.95S86.47,72.06,3.1,72.06ZM41,329.42V116.6c43.73,15.57,75.03,57.34,75.03,106.41s-31.3,90.84-75.03,106.41Z"/>
  </g>
</svg>