<?xml version="1.0" encoding="UTF-8"?>
<svg id="Layer_2" xmlns="http://www.w3.org/2000/svg" version="1.1" viewBox="0 0 868.88 716.12">
  <!-- Generator: Adobe Illustrator 30.2.0, SVG Export Plug-In . SVG Version: 2.1.1 Build 45)  -->
  <defs>
    <style>
      .st0 {
        fill: #fff;
      }
    </style>
  </defs>
  <path class="st0" d="M782.59,601.04c-43.11,30.38-94.82,49.67-151.3,53.41-70.86,4.69-137.55-15.89-191.29-54.01l77.78-92.79c30.44,19.15,66.96,29.2,105.57,26.65,29.08-1.92,56.06-10.79,79.41-24.87,17.64-10.63,33.19-24.21,46.03-40.04,27.14-33.38,42.2-76.7,39.14-122.98-2.74-41.37-19.51-78.47-45.39-106.96l77.79-92.81,39.28-46.9c-14.67-14.09-30.55-26.93-47.45-38.36C748.54,18.33,670.65-4.66,588.06.8c-70.54,4.67-134.95,29.46-188.02,68.42-16.47,12.08-31.83,25.52-45.94,40.15l40.28,46.22c13.85-14.88,29.24-28.36,45.92-40.18,43.19-30.57,95.11-49.98,151.79-53.73,66.25-4.38,128.85,13.31,180.63,46.77l-78.37,93.52c-28-14.88-60.36-22.38-94.31-20.13-29.29,1.94-56.43,10.91-79.9,25.17-17.59,10.67-33.12,24.32-45.9,40.19-26.9,33.32-41.82,76.45-38.77,122.52,2.43,36.7,15.91,70.05,36.99,97.01l-78.36,93.51-39.45,47.09c14.18,14.62,29.61,28.02,46.06,40.03,65.47,47.79,147.43,73.74,234.62,67.98,70.33-4.65,134.59-29.32,187.56-68.07,16.47-12.06,31.85-25.47,45.99-40.08l-40.28-46.2c-13.89,14.85-29.3,28.3-46.01,40.07v-.02ZM517.44,296.79c11.22-17.22,27.06-31.24,45.87-40.22,12.49-5.96,26.3-9.69,40.95-10.66,16.65-1.1,32.68,1.47,47.32,7.05,19.48,7.4,36.46,20.08,49.09,36.42,13.2,17.07,21.62,38.11,23.15,61.26,1.68,25.43-5.23,49.42-18.24,69.18-11.3,17.16-27.2,31.1-46.08,39.99-12.34,5.8-25.97,9.44-40.41,10.4-21.39,1.41-41.78-3.25-59.48-12.51-18.32-9.62-33.76-24.14-44.44-41.97-8.86-14.8-14.43-31.85-15.65-50.25-1.67-25.22,5.11-49.03,17.9-68.69h.02Z"/>
  <g>
    <path class="st0" d="M361.21,358.06c0,197.75-160.3,358.05-358.05,358.05v-61.01c164.04,0,297.04-132.99,297.04-297.04S167.21,61.03,3.16,61.03V0C200.91,0,361.21,160.31,361.21,358.06h0Z"/>
    <path class="st0" d="M3.16,115.69h-.16v484.73h.16c133.86,0,242.37-108.51,242.37-242.37S137.02,115.68,3.16,115.68h0ZM64.02,528.91V187.21c70.21,25,120.47,92.07,120.47,170.85s-50.26,145.85-120.47,170.85h0Z"/>
  </g>
</svg>